<svg id="Layer_1" data-name="Layer 1" xmlns="http://www.w3.org/2000/svg" viewBox="0 0 900.65677 582.17453">
  <defs>
    <style>
      .cls-1 {
        fill: #00ff0c;
      }

      .cls-2 {
        fill: #fffcff;
      }

      .cls-3 {
        fill: #4000ff;
      }
    </style>
  </defs>
  <title>BUBBLE SIPIS LOGO</title>
  <g>
    <path class="cls-1" d="M917.29509,369.51509c-129.64836-69.508-387.35466-30.21489-575.61768,87.7561S105.88814,727.21648,235.53662,796.72445c129.63058,69.51919,387.35467,30.2149,575.5999-87.745C999.39954,591.0085,1046.92568,439.03428,917.29509,369.51509ZM761.26387,592.91746C676.081,723.774,523.34823,824.98276,420.1442,818.97178S302.33714,702.00972,387.52,571.1532,625.43559,339.08779,728.63959,345.099C831.84362,351.10994,846.44665,462.061,761.26387,592.91746Z" transform="translate(-89.67161 -248.91273)"/>
    <path class="cls-2" d="M113.71857,248.91273a209.91549,209.91549,0,0,0-24.047,22.20949A32.48024,32.48024,0,0,1,113.71857,248.91273Z" transform="translate(-89.67161 -248.91273)"/>
    <g>
      <path class="cls-3" d="M614.08166,631.60461c-.09646-.09276-.2036-.16953-.30083-.2612-.36682-.3776-.71241-.77077-1.09611-1.13574-.09254-.08808-.19511-.16114-.28831-.24825-.37074-.38206-.72057-.77947-1.10862-1.14869-.09255-.08808-.19512-.16114-.28832-.24824-.37074-.38207-.72057-.77948-1.10862-1.1487-.09244-.08786-.19468-.16081-.28767-.2477-.37095-.38228-.7209-.77991-1.10916-1.14924-.09277-.0883-.19545-.16147-.28887-.24879-.37063-.38184-.72024-.779-1.10807-1.148-.09255-.08808-.19512-.16114-.28832-.24824-.37074-.38207-.72057-.77948-1.10862-1.14869-.09255-.08809-.19512-.16115-.28832-.24825-.37074-.38207-.72057-.77948-1.10862-1.14869-.09255-.08809-.19512-.16115-.28832-.24825-.37074-.38206-.72057-.77948-1.10862-1.14869-.09244-.08787-.19468-.16082-.28766-.24771-.371-.38228-.7209-.77991-1.10917-1.14923-.09277-.08831-.19544-.16147-.28886-.2488-.37063-.38184-.72025-.779-1.10808-1.148-.09255-.08809-.19512-.16115-.28832-.24825-.37074-.38206-.72057-.77948-1.10862-1.14869-.09255-.08809-.19512-.16115-.28832-.24825-.37074-.38206-.72057-.77948-1.10862-1.14869-.09255-.08809-.19511-.16115-.28832-.24825-.37074-.38206-.72057-.77948-1.10862-1.14869-.09244-.08787-.19468-.16082-.28766-.24771-.371-.38228-.7209-.77991-1.10917-1.14923-.09277-.0883-.19544-.16147-.28886-.24879-.37063-.38185-.72025-.779-1.10808-1.148-.09255-.08809-.19511-.16114-.28832-.24825-.37073-.38206-.72057-.77948-1.10862-1.14869-.09255-.08809-.19511-.16114-.28832-.24825-.37073-.38206-.72057-.77948-1.10862-1.14869-.09255-.08808-.19511-.16114-.28831-.24825-.37074-.38206-.72058-.77947-1.10863-1.14869-.09244-.08787-.19468-.16082-.28766-.2477-.371-.38228-.7209-.77992-1.10917-1.14924-.09276-.0883-.19544-.16147-.28886-.24879-.37063-.38185-.72024-.779-1.10808-1.148-.07415-.07055-.15624-.1288-.23082-.19871-.38914-.39915-.7576-.81366-1.16612-1.19823-8.04149-7.734-18.61424-11.65633-31.4221-11.65633-13.56392,0-26.74632,4.492-39.312,13.4472a71.246,71.246,0,0,0-10.1111,8.95566c-.17367-.17269-.34788-.34516-.52655-.51653-.44565-.47069-.91547-.93507-1.39694-1.39694-.44565-.47069-.91547-.93507-1.39694-1.39694-.44565-.47069-.91536-.935-1.39683-1.39683-.44586-.47091-.9159-.93551-1.39759-1.3976-.352-.37171-.72449-.73788-1.09872-1.10437-6.35416-6.86058-16.40211-13.05262-32.02878-13.05262h-43.183a19.45524,19.45524,0,0,0-16.40963,8.92615c-.32936-.34766-.6866-.66341-1.03916-.9845a19.42076,19.42076,0,0,0-1.3965-1.3964,19.64239,19.64239,0,0,0-14.58021-6.54525h-14.7381a19.48674,19.48674,0,0,0-18.70309,13.7843l-1.81776,5.8642c-.11748-.11454-.218-.2415-.33709-.35484-.1238-.1177-.26034-.2158-.38522-.33176-.34309-.35092-.65416-.72493-1.01172-1.06507-.12358-.11759-.26-.21548-.38468-.33133-.3433-.35114-.65448-.72525-1.01226-1.06561-.12358-.11759-.26-.21548-.38468-.33132-.3433-.35114-.65448-.72526-1.01226-1.06562-.12358-.11759-.26-.21547-.38468-.33132-.3433-.35114-.65448-.72526-1.01226-1.06562-.12336-.11737-.25957-.21515-.38413-.33078-.34352-.35125-.65481-.72558-1.0127-1.06616-.1238-.1177-.26034-.2158-.38522-.33176-.34309-.35092-.65416-.72493-1.01172-1.06507-.11237-.10692-.23649-.19577-.34984-.30127-.35484-.36116-.67625-.7466-1.0471-1.09567-8.04149-7.734-18.61425-11.65633-31.42036-11.65633-13.56392,0-26.74458,4.492-39.31377,13.4472A66.51691,66.51691,0,0,0,247.2528,637.9247c-.02788.08711-.05575.17508-.08362.26306-5.85,19.20742-.37978,31.30537,5.3395,38.19186.93431,1.10013,1.93427,2.13526,2.966,3.1386.47995.51119.978,1.00431,1.4822,1.49144.45174.47832.92211.938,1.3953,1.3952.45251.47908.92375.93986,1.3977,1.39781q.30966.32779.625.64958c-.43193.08177-.86669.14895-1.29154.26154l-18.37035,4.8404a19.52189,19.52189,0,0,0-14.51685,20.77443A39.84192,39.84192,0,0,0,238.565,736.15948c.0662.06446.13414.12717.20208.18989.068.06239.14252.11378.2109.17573.3322.34145.63782.69771.984,1.03132.06652.064.13414.12717.20208.18989.06816.06249.14263.11389.21112.176.33209.34134.63771.69749.98374,1.031.06652.06413.13414.12717.20208.18989.06783.06228.1422.11356.21036.17529.3323.34156.63815.698.98439,1.03176.06652.06413.13414.12717.20208.18989.068.06238.14252.11378.2109.17573.3322.34145.63782.69771.984,1.03132.06652.06413.13414.12717.20208.18989.06805.06238.14252.11378.2109.17573.3322.34145.63782.69771.984,1.03132.06652.06413.13414.12717.20208.18989.068.06238.14252.11378.2109.17573.33219.34145.63782.69771.98395,1.03132.06653.064.13415.12717.20209.18988.06816.0625.14263.11389.21112.176.33208.34134.63771.69749.98373,1.031.06653.06413.13414.12717.20209.18988.06783.06228.14219.11357.21035.1753.33231.34156.63815.698.98439,1.03176.06653.06413.13415.12717.20209.18988.068.06239.14252.11378.2109.17574.33219.34145.63782.69771.984,1.03132.06653.06413.13414.12717.20209.18988.068.06239.14252.11378.2109.17574.33219.34145.63782.6977.984,1.03131.06653.06414.13414.12718.20209.18989.068.06239.14252.11378.2109.17574.33219.34145.63782.6977.98395,1.03131.06653.064.13414.12718.20208.18989.06816.0625.14264.11389.21112.176.33209.34134.63772.69749.98374,1.031.06653.06414.13414.12718.20208.18989.06784.06228.1422.11357.21036.1753.33231.34156.63815.698.98439,1.03175.06653.06413.13414.12718.20208.18989.06806.06239.14253.11378.21091.17574.33219.34145.63782.6977.98395,1.03131.06653.06413.13414.12718.20208.18989.068.06239.14253.11378.21091.17573.33219.34145.63782.69771.98395,1.03132.06653.06413.13414.12718.20208.18989.06805.06239.14253.11378.21091.17573.33219.34145.63782.69771.98395,1.03132.06653.064.13414.12717.20208.18989.06816.0625.14264.11389.21112.176.33209.34134.63772.69749.98374,1.031.06653.06413.13414.12718.20208.18989.06783.06228.1422.11356.21036.1753.3323.34156.63815.698.98439,1.03175.06653.06413.13414.12717.20208.18989.068.06239.14253.11378.2109.17573.3322.34145.63783.69771.984,1.03132.06653.06413.13414.12717.20208.18989.06805.06239.14253.11378.2109.17573.3322.34145.63783.69771.984,1.03132.06652.06413.13414.12717.20208.18989.0552.05063.11574.09222.17116.14263.34515.35256.6633.72068,1.0237,1.06442.0662.06446.13414.12717.20208.18989,8.653,7.937,19.59156,11.9612,32.51265,11.9612,14.57433,0,28.572-4.8256,41.73876-14.4402.86233-.64544,1.70061-1.30635,2.527-1.97466.25326.25783.51914.50064.78547.74322a552015.13655,552015.13655,0,0,0,4.19071,4.19071,19.43442,19.43442,0,0,0,1.39694,1.39694,19.43442,19.43442,0,0,0,1.39694,1.39694,19.646,19.646,0,0,0,14.58,6.546h14.57434a19.45724,19.45724,0,0,0,16.47343-9.03024c.35974.38522.75106.73407,1.13889,1.08728a19.43647,19.43647,0,0,0,1.39694,1.39694,19.64606,19.64606,0,0,0,14.58,6.546H429.9705a19.49328,19.49328,0,0,0,18.69438-13.7573l7.88471-25.31h10.72779a59.23615,59.23615,0,0,0,12.35285-1.32334c.33927.346.65132.70762,1.00529,1.04526.0662.06446.13414.12717.20208.18989.068.06239.14253.11367.2108.17562.3323.34145.63793.69782.98406,1.03143.06653.064.13414.12717.20208.18989.06816.06249.14264.11389.211.17584.3322.34134.63783.6976.98385,1.0311.06653.06413.13414.12717.20208.18989.06784.06228.14209.11345.21025.17519.33241.34155.63815.69814.9845,1.03186.06653.06413.13414.12717.20208.18989.06805.06249.14253.11378.21091.17573.33219.34134.63782.69771.98395,1.03132.06653.06413.13414.12717.20208.18989.068.06238.14253.11367.2108.17562.3323.34145.63793.69782.98406,1.03143.06653.06413.13414.12717.20208.18989.06805.06238.14253.11367.21079.17562.33231.34145.63794.69782.98407,1.03143.06652.064.13414.12717.20208.18988.06816.0625.14263.11389.211.17585.3322.34134.63783.6976.98385,1.0311.06652.06413.13414.12717.20208.18988.06783.06228.14209.11346.21025.17519.33241.34156.63815.69815.9845,1.03187.06652.06413.13414.12717.20208.18988.068.0625.14253.11378.2109.17574.3322.34134.63783.69771.984,1.03132.06652.06413.13414.12717.20208.18988.06805.06239.14253.11367.21079.17563.33231.34145.63794.69781.98407,1.03142.06652.06414.13414.12718.20208.18989.068.06239.14252.11367.21079.17563.33231.34145.63793.69781.98407,1.03142.06652.064.13414.12718.20208.18989.06816.0625.14263.11389.211.17584.33219.34135.63782.6976.98385,1.0311.06652.06414.13414.12718.20208.18989.06783.06228.14209.11346.21025.17519.33241.34156.63815.69814.9845,1.03186.06652.06413.13414.12718.20208.18989.068.0625.14252.11378.2109.17574.3322.34134.63782.6977.984,1.03131.06652.06413.13414.12718.20208.18989.06805.06239.14252.11367.21079.17563.33231.34145.63793.69781.98406,1.03142.06653.06413.13415.12718.20209.18989.06805.06239.14252.11367.21079.17563.3323.34145.63793.69781.98406,1.03142.06653.064.13415.12717.20209.18989.06816.0625.14263.11389.211.17584.33219.34134.63782.6976.98384,1.0311.06653.06413.13414.12718.20209.18989.06783.06228.14209.11345.21024.17519.33242.34156.63815.69814.9845,1.03186.06653.06413.13415.12717.20209.18989.06805.0625.14252.11378.2109.17573.33219.34134.63782.69771.984,1.03132.06653.06413.13414.12717.20209.18989.068.06239.14252.11367.21079.17562.3323.34145.63793.69782.98406,1.03143.06653.06413.13414.12717.20209.18989.0552.05063.11563.09211.17094.14241.34526.35267.66341.72079,1.02391,1.06464.0662.06446.13414.12717.20208.18989,8.653,7.937,19.59156,11.9612,32.51265,11.9612,14.57434,0,28.572-4.8256,41.73876-14.4402,12.88625-9.64247,21.71517-21.82927,26.26725-36.30431,6.07642-19.73005.57489-32.58668-5.01373-39.77194a43.19755,43.19755,0,0,0-4.54251-5.06589c-.43574-.45817-.88923-.90055-1.34544-1.34054-.33361-.352-.68028-.69259-1.026-1.034l12.54785-3.30649a19.50007,19.50007,0,0,0,14.50117-21.01833A37.68548,37.68548,0,0,0,614.08166,631.60461Z" transform="translate(-89.67161 -248.91273)"/>
      <path class="cls-3" d="M952.25814,416.01822a218.56563,218.56563,0,0,0-6.78958-7.03587,236583.39567,236583.39567,0,0,0-5.58809-5.58819,26290.07368,26290.07368,0,0,1-2.7942-2.79421,275888.55959,275888.55959,0,0,1-2.79344-2.79344,50197.91965,50197.91965,0,0,1-4.19115-4.19115,19.42423,19.42423,0,0,0-1.3965-1.3965,19.43646,19.43646,0,0,0-1.39694-1.39694,50197.91965,50197.91965,0,0,1-4.19115-4.19115,19.42423,19.42423,0,0,0-1.3965-1.3965,19.64483,19.64483,0,0,0-14.58631-6.54928H839.61605a19.49533,19.49533,0,0,0-18.70483,13.78342L810.564,425.849a19.5942,19.5942,0,0,0-3.68855-9.84641,222.20545,222.20545,0,0,0-6.77989-7.02117,236583.39568,236583.39568,0,0,0-5.58809-5.58819,26290.07368,26290.07368,0,0,1-2.7942-2.79421,551693.18871,551693.18871,0,0,1-2.79345-2.79344,51767.33027,51767.33027,0,0,1-4.19114-4.19115,275888.55959,275888.55959,0,0,1-2.79344-2.79344,50197.91965,50197.91965,0,0,1-4.19115-4.19115,19.44679,19.44679,0,0,0-1.3965-1.3965,19.64737,19.64737,0,0,0-14.58381-6.5483H747.03262a19.48752,19.48752,0,0,0-18.70309,13.78342l-3.04518,9.82507c-.331-.34047-.68268-.67571-1.03545-1.01052q-.66636-.70587-1.39586-1.39585-.66782-.70719-1.39879-1.3989-.66651-.70587-1.39606-1.396-.66684-.70637-1.39694-1.39694-.66684-.70637-1.39694-1.39694-.66636-.70587-1.39585-1.39585-.66783-.70718-1.39879-1.3989c-.5223-.55311-1.067-1.101-1.64584-1.63974C707.11456,383.943,698.21628,378.685,684.61,378.685H643.03326a19.48753,19.48753,0,0,0-18.70309,13.78342l-3.04518,9.82507c-.331-.34047-.68268-.67571-1.03545-1.01052q-.66636-.70587-1.39585-1.39585-.66783-.70719-1.39879-1.3989-.66652-.70587-1.39607-1.396-.66684-.70637-1.39694-1.39694-.66684-.70637-1.39694-1.39694-.66634-.70587-1.39585-1.39585-.66781-.70718-1.39879-1.3989c-.5223-.55311-1.067-1.101-1.64584-1.63974C603.1152,383.943,594.21692,378.685,580.61065,378.685H539.0339a19.47188,19.47188,0,0,0-15.78944,7.99478c-.01851-.01688-.036-.03484-.05455-.05172a19.4433,19.4433,0,0,0-1.39651-1.39639,19.64548,19.64548,0,0,0-14.58228-6.54667H492.65943a19.47992,19.47992,0,0,0-18.70657,13.79736l-4.45932,14.42245c-.24618-.24956-.5039-.48539-.76227-.72069a1655634.57428,1655634.57428,0,0,1-4.19028-4.19027,25096.39724,25096.39724,0,0,0-2.79431-2.79431,19.43237,19.43237,0,0,0-1.39694-1.39694,551628.007,551628.007,0,0,1-2.79333-2.79334,1656282.615,1656282.615,0,0,1-4.19126-4.19125,551628.007,551628.007,0,0,1-2.79333-2.79334,26290.9285,26290.9285,0,0,0-2.79432-2.79431,19.648,19.648,0,0,0-14.58086-6.54536H418.62753A19.47994,19.47994,0,0,0,399.921,392.48235l-2.65941,8.60081c-.38641-.40318-.79613-.80027-1.21282-1.19573q-.667-.70635-1.39716-1.39715-.66684-.7062-1.39694-1.39694-.66716-.70653-1.3977-1.3977-.666-.70539-1.39519-1.39509-.66717-.70669-1.3976-1.3977-.667-.70637-1.39715-1.39716c-.52394-.55486-1.07041-1.1047-1.65129-1.64508-5.70981-5.9193-14.6082-11.17562-28.21153-11.17562H316.22741a19.48673,19.48673,0,0,0-18.70309,13.78429L262.10761,506.72085a19.65333,19.65333,0,0,0,2.94065,17.41481,66.19127,66.19127,0,0,0,3.97621,4.21249,551841.32575,551841.32575,0,0,1,4.19027,4.19027,19.43646,19.43646,0,0,0,1.39694,1.39694,552015.14394,552015.14394,0,0,1,4.19071,4.19071,19.43646,19.43646,0,0,0,1.39694,1.39694,1655895.3427,1655895.3427,0,0,1,4.19028,4.19027,1656282.63332,1656282.63332,0,0,0,4.19125,4.19126,19.469,19.469,0,0,0,1.39737,1.39737,19.45435,19.45435,0,0,0,1.396,1.396,1656282.5624,1656282.5624,0,0,1,4.19126,4.19125,19.65017,19.65017,0,0,0,14.58228,6.54667H354.139c13.26254,0,26.02858-4.83343,37.87654-14.31389a75.60584,75.60584,0,0,0,12.22349-12.06463c.16735.16506.35332.32348.5247.48713.45131.471.91514.9367,1.39792,1.3977.45044.47.91329.935,1.39509,1.3952.45131.47091.91492.9367,1.3977,1.39781.451.47069.91449.93615,1.39694,1.39694.451.47069.91449.93615,1.39694,1.39694.45131.471.91514.9367,1.39792,1.3977.45044.47.91329.935,1.39509,1.3952.45131.47091.91492.9367,1.3977,1.39781.451.47069.91449.93615,1.39694,1.39694q.783.81725,1.6295,1.61274c7.28173,7.49,18.48392,13.84744,35.59986,13.84744,17.27109,0,33.93245-6.57116,49.52242-19.53058.05052-.04181.0993-.08362.14982-.1263.56509-.483,1.11178-.98319,1.66544-1.477.40863.44848.84535.86408,1.29132,1.27031a19.42618,19.42618,0,0,0,1.39738,1.39738,19.43646,19.43646,0,0,0,1.39694,1.39694,19.43646,19.43646,0,0,0,1.39694,1.39694,19.469,19.469,0,0,0,1.39737,1.39737,19.45435,19.45435,0,0,0,1.396,1.396,1656282.66759,1656282.66759,0,0,1,4.19126,4.19125,19.65017,19.65017,0,0,0,14.58228,6.54667h43.993c13.20886,0,25.9246-4.79772,37.73021-14.20229.22984.23138.46873.452.70925.671a19.4669,19.4669,0,0,0,1.39737,1.39737,552015.13016,552015.13016,0,0,1,2.79333,2.79334,551948.00688,551948.00688,0,0,1,2.79388,2.79387,19.65021,19.65021,0,0,0,14.58229,6.54667h43.993c13.20887,0,25.92461-4.79772,37.73021-14.20229.22985.23138.46874.452.70925.671a552015.13428,552015.13428,0,0,1,2.79334,2.79333,276060.43563,276060.43563,0,0,0,2.79431,2.79431,19.43237,19.43237,0,0,0,1.39694,1.39694,19.65019,19.65019,0,0,0,14.58228,6.54667h67.03219a19.53116,19.53116,0,0,0,12.79217-4.73239,19.67071,19.67071,0,0,0,12.75908,4.73239H901.079A19.48642,19.48642,0,0,0,919.79253,547.621l5.08342-16.49586a19.66075,19.66075,0,0,0-2.95981-17.39565,125.00083,125.00083,0,0,0-5.39145-5.64917c-.03016-.03353-.05574-.07142-.08612-.10463a19.53894,19.53894,0,0,0,6.74407-9.62364l5.11129-16.1396a19.65139,19.65139,0,0,0-2.871-17.48015q-.3972-.54352-.82924-1.054h6.68441a19.49842,19.49842,0,0,0,18.6787-13.70329l5.19143-16.495A19.64914,19.64914,0,0,0,952.25814,416.01822Z" transform="translate(-89.67161 -248.91273)"/>
    </g>
    <path class="cls-1" d="M280.80623,517.82935h43.99053q14.98372,0,29.02781-11.23823Q368.043,495.352,372.85256,479.654a33.5804,33.5804,0,0,0,1.45236-16.94706,24.07749,24.07749,0,0,0-3.96119-10.32788,4.64282,4.64282,0,0,1,.42387-5.73845,46.58478,46.58478,0,0,0,9.98295-17.64923q4.65971-14.806-2.08474-25.51031-6.777-10.5231-20.86851-10.52485H316.22153a5.31066,5.31066,0,0,0-5.07253,3.7382L275.7337,510.94634A5.31071,5.31071,0,0,0,280.80623,517.82935Zm44.92745-85.00077,2.75773-9.00171a5.31042,5.31042,0,0,1,5.07765-3.755h12.842q4.9911,0,7.395,2.67585,2.221,2.67585.92636,7.13561a12.41614,12.41614,0,0,1-5.31741,7.1356,16.476,16.476,0,0,1-9.01554,2.67586h-9.58825A5.3106,5.3106,0,0,1,325.73368,432.82858ZM309.85506,483.788l4.24047-13.283a5.31069,5.31069,0,0,1,5.059-3.69541h19.48921q5.174,0,7.80675,3.38924,2.63763,3.39186,1.04253,8.56325a16.06033,16.06033,0,0,1-6.44835,8.56238,16.54048,16.54048,0,0,1-9.85458,3.38924h-16.276A5.31054,5.31054,0,0,1,309.85506,483.788Zm84.94622,19.94869q-9.163-16.41049-1.49668-41.56542l20.24288-65.47312a5.31074,5.31074,0,0,1,5.07363-3.74191h14.57008a5.31061,5.31061,0,0,1,5.07374,6.87909l-19.27145,62.33594Q414.663,476.08622,418.9484,484.47q4.46145,8.38818,14.62976,8.38469,10.1677,0,19.79919-8.38469,9.63023-8.38294,13.95916-22.29876l20.24288-65.47312a5.31073,5.31073,0,0,1,5.07362-3.74191h14.55223a5.31056,5.31056,0,0,1,5.06992,6.89106l-19.42921,62.324a89.70307,89.70307,0,0,1-10.7793,23.013,88.679,88.679,0,0,1-16.44414,18.5524q-19.5283,16.23411-40.39931,16.23368Q404.17177,519.97038,394.80128,503.7367Zm198.347-51.35783a4.64217,4.64217,0,0,1,.42387-5.7379,46.6094,46.6094,0,0,0,9.98491-17.64956q4.6571-14.806-2.08648-25.51031-6.77439-10.5231-20.86677-10.52485H539.02791a5.31067,5.31067,0,0,0-5.07242,3.73809l-35.41693,114.252a5.31061,5.31061,0,0,0,5.07253,6.883h43.99216q14.98372,0,29.02607-11.23823,14.21839-11.23911,19.028-26.93709a33.60154,33.60154,0,0,0,1.4541-16.94706A24.09261,24.09261,0,0,0,593.14826,452.37887Zm-22.84872,26.38321a16.06385,16.06385,0,0,1-6.4502,8.56238,16.53523,16.53523,0,0,1-9.85273,3.38924H537.71873a5.31053,5.31053,0,0,1-5.05892-6.92569l4.24047-13.283a5.31059,5.31059,0,0,1,5.059-3.69541h19.49095q5.1714,0,7.80675,3.38924Q571.892,473.59069,570.29954,478.76208Zm7.23937-48.87872a12.41614,12.41614,0,0,1-5.31741,7.1356,16.48169,16.48169,0,0,1-9.01728,2.67586h-9.58651a5.31067,5.31067,0,0,1-5.07765-6.86624l2.75784-9.00171a5.31038,5.31038,0,0,1,5.07754-3.755h12.84041q4.99371,0,7.395,2.67585Q578.83182,425.4236,577.53891,429.88336Zm119.60871,22.49551a4.64216,4.64216,0,0,1,.42387-5.7379,46.6094,46.6094,0,0,0,9.98491-17.64956q4.65709-14.806-2.08648-25.51031-6.7744-10.5231-20.86677-10.52485H643.02727a5.31067,5.31067,0,0,0-5.07242,3.73809l-35.41693,114.252a5.3106,5.3106,0,0,0,5.07242,6.883h43.99227q14.98372,0,29.02607-11.23823,14.21839-11.23911,19.028-26.93709a33.60154,33.60154,0,0,0,1.4541-16.94706A24.09274,24.09274,0,0,0,697.14762,452.37887ZM674.2989,478.76208a16.064,16.064,0,0,1-6.4502,8.56238,16.53523,16.53523,0,0,1-9.85273,3.38924H641.71809a5.31064,5.31064,0,0,1-5.059-6.92569l4.24057-13.283a5.31061,5.31061,0,0,1,5.059-3.69541h19.49095q5.1714,0,7.80674,3.38924Q675.89138,473.59069,674.2989,478.76208Zm7.23937-48.87872a12.41619,12.41619,0,0,1-5.31741,7.1356,16.48169,16.48169,0,0,1-9.01728,2.67586h-9.58651a5.31067,5.31067,0,0,1-5.07765-6.86624l2.75773-9.00171a5.31062,5.31062,0,0,1,5.07765-3.755h12.84041q4.9937,0,7.395,2.67585Q682.83116,425.4236,681.53827,429.88336Zm107.361,67.73523L783.70777,514.113a5.31059,5.31059,0,0,1-5.06556,3.71632H711.6097a5.3106,5.3106,0,0,1-5.07243-6.883l35.41693-114.252a5.31068,5.31068,0,0,1,5.07243-3.73809h14.73069a5.31058,5.31058,0,0,1,5.06915,6.89378L740.6006,483.81992a5.31056,5.31056,0,0,0,5.06905,6.89378h38.164A5.31059,5.31059,0,0,1,788.89931,497.61859Zm123.295-97.75745-5.19154,16.49445a5.31058,5.31058,0,0,1-5.06556,3.71631H856.97294a5.31074,5.31074,0,0,0-5.08342,3.77392l-3.31389,10.96341a5.31056,5.31056,0,0,0,5.08342,6.84718h26.62438a5.31058,5.31058,0,0,1,5.06273,6.91382l-5.1102,16.13731a5.31065,5.31065,0,0,1-5.06285,3.70739H841.931a5.31049,5.31049,0,0,0-5.06665,3.71969l-3.66656,11.67767a5.31061,5.31061,0,0,0,5.06677,6.90141h38.5553A5.31056,5.31056,0,0,1,881.895,497.588l-5.08233,16.49445a5.31072,5.31072,0,0,1-5.07515,3.74691H804.19313a5.3106,5.3106,0,0,1-5.07242-6.883l35.41693-114.252a5.31067,5.31067,0,0,1,5.07242-3.73809h67.51856A5.31059,5.31059,0,0,1,912.19429,399.86114ZM322.90441,666.42874q7.9085,10.169,2.7377,26.93709-5.44529,17.3055-21.17937,29.07811Q288.579,734.041,271.27329,734.0393q-13.91233,0-22.86516-8.207a25.83428,25.83428,0,0,1-8.00959-16.8408,5.32584,5.32584,0,0,1,3.94562-5.63762l18.36817-4.84018a4.7206,4.7206,0,0,1,5.43707,2.74684,7.95678,7.95678,0,0,0,2.48117,2.98725,15.6094,15.6094,0,0,0,9.17886,2.67585,22.86806,22.86806,0,0,0,12.55732-3.5678,19.44119,19.44119,0,0,0,7.58648-9.99q1.58977-5.1714-1.5792-8.56238-3.43579-3.92232-12.08032-5.53027-15.03729-2.85093-22.91252-12.13018-7.40514-8.91864-2.56491-24.79693a52.24569,52.24569,0,0,1,19.53418-26.75852q15.021-10.7034,30.89849-10.7034,13.55174,0,21.52778,7.67129a23.28334,23.28334,0,0,1,7.432,14.96674,5.34182,5.34182,0,0,1-3.94017,5.7243l-18.1257,4.77627a5.13306,5.13306,0,0,1-5.74836-2.115,6.53553,6.53553,0,0,0-1.81-1.94548,13.08875,13.08875,0,0,0-7.51277-1.96247,20.24635,20.24635,0,0,0-10.44753,2.67586,13.60732,13.60732,0,0,0-6.29668,7.67042q-.99774,3.74724,1.10807,6.066,2.66851,3.21022,10.98476,4.63744Q315.17851,656.261,322.90441,666.42874Zm70.20976-52.51392L357.53468,728.16671a5.31064,5.31064,0,0,1-5.07047,3.73156H337.88988a5.31061,5.31061,0,0,1-5.07253-6.883l35.41693-114.25189a5.31062,5.31062,0,0,1,5.07242-3.7382h14.737A5.31063,5.31063,0,0,1,393.11417,613.91482Zm96.32131,5.77623q-8.01481-12.66457-24.7831-12.66587H421.4703a5.31063,5.31063,0,0,0-5.07243,3.7382L380.98094,725.01527a5.31061,5.31061,0,0,0,5.07253,6.883h14.57477a5.31035,5.31035,0,0,0,5.07025-3.731l9.84587-31.60512a5.31065,5.31065,0,0,1,5.07024-3.73113h17.32129q16.94619,0,32.83657-12.66587,15.70707-12.66456,21.21028-30.32632Q497.51035,632.00284,489.43548,619.69105Zm-23.14161,30.14776a23.11958,23.11958,0,0,1-7.97639,11.23823,18.52179,18.52179,0,0,1-12.02663,4.63832H432.41716a5.31053,5.31053,0,0,1-5.07874-6.86265l6.4036-20.95332a5.31062,5.31062,0,0,1,5.07863-3.75857H456.118q6.24279,0,9.2026,4.63745Q468.24632,643.5956,466.29387,649.83881ZM582.27859,627.522a5.342,5.342,0,0,1-3.94017,5.72473l-18.125,4.776a5.133,5.133,0,0,1-5.74836-2.115,6.53864,6.53864,0,0,0-1.81-1.94548,13.0947,13.0947,0,0,0-7.51451-1.96247,20.24446,20.24446,0,0,0-10.4458,2.67586,13.61115,13.61115,0,0,0-6.29853,7.67042q-.995,3.74724,1.10993,6.066,2.66572,3.21022,10.98465,4.63744,16.75575,3.21155,24.48422,13.37926,7.90587,10.169,2.736,26.93709-5.44268,17.3055-21.17762,29.07811-15.88379,11.5971-33.18945,11.59536-13.91235,0-22.86517-8.207a25.83327,25.83327,0,0,1-8.01024-16.84112,5.32593,5.32593,0,0,1,3.94573-5.63719l18.36872-4.84029a4.72059,4.72059,0,0,1,5.43706,2.74684,7.95579,7.95579,0,0,0,2.48118,2.98725,15.60387,15.60387,0,0,0,9.17711,2.67585,22.86974,22.86974,0,0,0,12.55907-3.5678,19.43852,19.43852,0,0,0,7.58473-9.99q1.58978-5.1714-1.57746-8.56238-3.43856-3.92232-12.082-5.53027Q513.32782,676.42225,505.45,667.143q-7.40514-8.91864-2.56327-24.79693A52.24678,52.24678,0,0,1,522.421,615.58755q15.01836-10.7034,30.89675-10.7034,13.55435,0,21.52953,7.67129A23.2846,23.2846,0,0,1,582.27859,627.522Z" transform="translate(-89.67161 -248.91273)"/>
  </g>
</svg>
